<?xml version="1.0" encoding="utf-8"?>
<!-- Generator: Adobe Illustrator 26.2.1, SVG Export Plug-In . SVG Version: 6.00 Build 0)  -->
<svg version="1.1" id="Layer_1" xmlns="http://www.w3.org/2000/svg" xmlns:xlink="http://www.w3.org/1999/xlink" x="0px" y="0px"
	 viewBox="0 0 48 48" style="enable-background:new 0 0 48 48;" xml:space="preserve">
<style type="text/css">
	.st0{fill:none;}
</style>
<path class="st0" d="M0,0h48v48H0V0z"/>
<path d="M7.8,24c0-3.4,2.8-6.2,6.2-6.2h8V14h-8C8.5,14,4,18.5,4,24s4.5,10,10,10h8v-3.8h-8C10.6,30.2,7.8,27.4,7.8,24z M16,26h16v-4
	H16V26z M34,14h-8v3.8h8c3.4,0,6.2,2.8,6.2,6.2s-2.8,6.2-6.2,6.2h-8V34h8c5.5,0,10-4.5,10-10S39.5,14,34,14z"/>
</svg>
